<svg id="visual" viewBox="0 0 900 600" width="900" height="600" xmlns="http://www.w3.org/2000/svg" xmlns:xlink="http://www.w3.org/1999/xlink" version="1.1"><g stroke-width="1" stroke-linejoin="bevel"><path d="M426 286L494 204L422 234Z" fill="#00101c" stroke="#00101c"></path><path d="M426 286L502 332L494 204Z" fill="#297ea6" stroke="#297ea6"></path><path d="M502 332L572 223L494 204Z" fill="#00101c" stroke="#00101c"></path><path d="M572 223L508 136L494 204Z" fill="#112e42" stroke="#112e42"></path><path d="M494 204L369 121L422 234Z" fill="#19435d" stroke="#19435d"></path><path d="M502 332L587 313L572 223Z" fill="#297ea6" stroke="#297ea6"></path><path d="M508 136L369 121L494 204Z" fill="#277297" stroke="#277297"></path><path d="M422 234L297 281L426 286Z" fill="#0c2435" stroke="#0c2435"></path><path d="M297 281L414 417L426 286Z" fill="#112e42" stroke="#112e42"></path><path d="M426 286L414 417L502 332Z" fill="#112e42" stroke="#112e42"></path><path d="M502 332L535 438L587 313Z" fill="#297ea6" stroke="#297ea6"></path><path d="M369 121L322 172L422 234Z" fill="#297ea6" stroke="#297ea6"></path><path d="M322 172L297 281L422 234Z" fill="#277297" stroke="#277297"></path><path d="M414 417L535 438L502 332Z" fill="#0c2435" stroke="#0c2435"></path><path d="M308 0L327 113L369 121Z" fill="#277297" stroke="#277297"></path><path d="M369 121L327 113L322 172Z" fill="#297ea6" stroke="#297ea6"></path><path d="M322 172L232 235L297 281Z" fill="#081a28" stroke="#081a28"></path><path d="M535 438L634 415L587 313Z" fill="#00101c" stroke="#00101c"></path><path d="M587 313L697 209L572 223Z" fill="#081a28" stroke="#081a28"></path><path d="M709 322L697 209L587 313Z" fill="#297ea6" stroke="#297ea6"></path><path d="M572 223L627 67L508 136Z" fill="#00101c" stroke="#00101c"></path><path d="M187 87L232 235L322 172Z" fill="#277297" stroke="#277297"></path><path d="M266 423L402 495L414 417Z" fill="#19435d" stroke="#19435d"></path><path d="M707 137L627 67L572 223Z" fill="#15384f" stroke="#15384f"></path><path d="M508 136L438 0L369 121Z" fill="#19435d" stroke="#19435d"></path><path d="M634 415L709 322L587 313Z" fill="#277297" stroke="#277297"></path><path d="M266 423L414 417L297 281Z" fill="#277297" stroke="#277297"></path><path d="M414 417L523 505L535 438Z" fill="#205a7a" stroke="#205a7a"></path><path d="M535 438L571 487L634 415Z" fill="#00101c" stroke="#00101c"></path><path d="M523 505L571 487L535 438Z" fill="#112e42" stroke="#112e42"></path><path d="M402 495L523 505L414 417Z" fill="#205a7a" stroke="#205a7a"></path><path d="M627 67L503 0L508 136Z" fill="#19435d" stroke="#19435d"></path><path d="M503 0L438 0L508 136Z" fill="#297ea6" stroke="#297ea6"></path><path d="M697 209L707 137L572 223Z" fill="#00101c" stroke="#00101c"></path><path d="M823 211L707 137L697 209Z" fill="#19435d" stroke="#19435d"></path><path d="M175 385L266 423L297 281Z" fill="#081a28" stroke="#081a28"></path><path d="M700 0L622 0L627 67Z" fill="#205a7a" stroke="#205a7a"></path><path d="M627 67L622 0L503 0Z" fill="#112e42" stroke="#112e42"></path><path d="M735 499L713 435L634 415Z" fill="#297ea6" stroke="#297ea6"></path><path d="M634 415L713 435L709 322Z" fill="#15384f" stroke="#15384f"></path><path d="M709 322L785 301L697 209Z" fill="#19435d" stroke="#19435d"></path><path d="M735 499L634 415L571 487Z" fill="#081a28" stroke="#081a28"></path><path d="M438 0L308 0L369 121Z" fill="#277297" stroke="#277297"></path><path d="M327 113L187 87L322 172Z" fill="#15384f" stroke="#15384f"></path><path d="M125 236L163 286L232 235Z" fill="#277297" stroke="#277297"></path><path d="M232 235L163 286L297 281Z" fill="#1d4e6b" stroke="#1d4e6b"></path><path d="M800 435L785 301L709 322Z" fill="#00101c" stroke="#00101c"></path><path d="M196 524L276 502L266 423Z" fill="#277297" stroke="#277297"></path><path d="M266 423L276 502L402 495Z" fill="#297ea6" stroke="#297ea6"></path><path d="M402 495L435 600L523 505Z" fill="#00101c" stroke="#00101c"></path><path d="M163 286L175 385L297 281Z" fill="#277297" stroke="#277297"></path><path d="M308 0L187 87L327 113Z" fill="#19435d" stroke="#19435d"></path><path d="M785 69L700 0L707 137Z" fill="#1d4e6b" stroke="#1d4e6b"></path><path d="M707 137L700 0L627 67Z" fill="#081a28" stroke="#081a28"></path><path d="M317 600L435 600L402 495Z" fill="#1d4e6b" stroke="#1d4e6b"></path><path d="M523 505L571 600L571 487Z" fill="#00101c" stroke="#00101c"></path><path d="M435 600L515 600L523 505Z" fill="#297ea6" stroke="#297ea6"></path><path d="M187 87L125 236L232 235Z" fill="#205a7a" stroke="#205a7a"></path><path d="M163 286L125 327L175 385Z" fill="#1d4e6b" stroke="#1d4e6b"></path><path d="M785 301L823 211L697 209Z" fill="#19435d" stroke="#19435d"></path><path d="M125 236L125 327L163 286Z" fill="#081a28" stroke="#081a28"></path><path d="M718 600L735 499L571 487Z" fill="#297ea6" stroke="#297ea6"></path><path d="M713 435L800 435L709 322Z" fill="#297ea6" stroke="#297ea6"></path><path d="M785 301L900 299L823 211Z" fill="#15384f" stroke="#15384f"></path><path d="M515 600L571 600L523 505Z" fill="#112e42" stroke="#112e42"></path><path d="M823 211L785 69L707 137Z" fill="#246688" stroke="#246688"></path><path d="M308 0L211 0L187 87Z" fill="#297ea6" stroke="#297ea6"></path><path d="M187 87L98 139L125 236Z" fill="#246688" stroke="#246688"></path><path d="M765 495L800 435L713 435Z" fill="#0c2435" stroke="#0c2435"></path><path d="M770 600L765 495L735 499Z" fill="#081a28" stroke="#081a28"></path><path d="M735 499L765 495L713 435Z" fill="#297ea6" stroke="#297ea6"></path><path d="M125 327L128 407L175 385Z" fill="#00101c" stroke="#00101c"></path><path d="M175 385L196 524L266 423Z" fill="#205a7a" stroke="#205a7a"></path><path d="M198 600L317 600L276 502Z" fill="#081a28" stroke="#081a28"></path><path d="M276 502L317 600L402 495Z" fill="#00101c" stroke="#00101c"></path><path d="M128 407L196 524L175 385Z" fill="#112e42" stroke="#112e42"></path><path d="M785 69L762 0L700 0Z" fill="#297ea6" stroke="#297ea6"></path><path d="M119 0L98 139L187 87Z" fill="#277297" stroke="#277297"></path><path d="M125 236L0 322L125 327Z" fill="#297ea6" stroke="#297ea6"></path><path d="M0 423L65 485L128 407Z" fill="#297ea6" stroke="#297ea6"></path><path d="M571 600L718 600L571 487Z" fill="#081a28" stroke="#081a28"></path><path d="M900 509L900 437L800 435Z" fill="#0c2435" stroke="#0c2435"></path><path d="M800 435L900 299L785 301Z" fill="#246688" stroke="#246688"></path><path d="M823 211L900 97L785 69Z" fill="#19435d" stroke="#19435d"></path><path d="M785 69L900 0L762 0Z" fill="#0c2435" stroke="#0c2435"></path><path d="M900 437L900 299L800 435Z" fill="#15384f" stroke="#15384f"></path><path d="M900 299L900 180L823 211Z" fill="#297ea6" stroke="#297ea6"></path><path d="M211 0L119 0L187 87Z" fill="#00101c" stroke="#00101c"></path><path d="M87 600L198 600L196 524Z" fill="#1d4e6b" stroke="#1d4e6b"></path><path d="M196 524L198 600L276 502Z" fill="#297ea6" stroke="#297ea6"></path><path d="M718 600L770 600L735 499Z" fill="#19435d" stroke="#19435d"></path><path d="M900 180L900 97L823 211Z" fill="#205a7a" stroke="#205a7a"></path><path d="M900 509L800 435L765 495Z" fill="#205a7a" stroke="#205a7a"></path><path d="M0 322L128 407L125 327Z" fill="#19435d" stroke="#19435d"></path><path d="M128 407L65 485L196 524Z" fill="#00101c" stroke="#00101c"></path><path d="M0 182L0 322L125 236Z" fill="#081a28" stroke="#081a28"></path><path d="M0 182L125 236L98 139Z" fill="#0c2435" stroke="#0c2435"></path><path d="M0 134L0 182L98 139Z" fill="#19435d" stroke="#19435d"></path><path d="M0 0L0 134L98 139Z" fill="#15384f" stroke="#15384f"></path><path d="M770 600L900 509L765 495Z" fill="#246688" stroke="#246688"></path><path d="M900 97L900 0L785 69Z" fill="#00101c" stroke="#00101c"></path><path d="M0 322L0 423L128 407Z" fill="#00101c" stroke="#00101c"></path><path d="M0 423L0 462L65 485Z" fill="#0c2435" stroke="#0c2435"></path><path d="M65 485L87 600L196 524Z" fill="#15384f" stroke="#15384f"></path><path d="M0 600L87 600L65 485Z" fill="#15384f" stroke="#15384f"></path><path d="M119 0L0 0L98 139Z" fill="#277297" stroke="#277297"></path><path d="M770 600L900 600L900 509Z" fill="#15384f" stroke="#15384f"></path><path d="M0 462L0 600L65 485Z" fill="#1d4e6b" stroke="#1d4e6b"></path></g></svg>