<svg id="visual" viewBox="0 0 900 600" width="900" height="600" xmlns="http://www.w3.org/2000/svg" xmlns:xlink="http://www.w3.org/1999/xlink" version="1.1"><path d="M0 25L82 61L164 25L245 43L327 67L409 25L491 25L573 61L655 67L736 43L818 37L900 55L900 0L818 0L736 0L655 0L573 0L491 0L409 0L327 0L245 0L164 0L82 0L0 0Z" fill="#3bb8f2"></path><path d="M0 49L82 91L164 97L245 115L327 97L409 97L491 79L573 109L655 127L736 109L818 79L900 127L900 53L818 35L736 41L655 65L573 59L491 23L409 23L327 65L245 41L164 23L82 59L0 23Z" fill="#37aae0"></path><path d="M0 121L82 175L164 217L245 157L327 223L409 199L491 181L573 175L655 223L736 193L818 133L900 223L900 125L818 77L736 107L655 125L573 107L491 77L409 95L327 95L245 113L164 95L82 89L0 47Z" fill="#349cce"></path><path d="M0 361L82 283L164 379L245 349L327 355L409 331L491 307L573 283L655 391L736 379L818 301L900 379L900 221L818 131L736 191L655 221L573 173L491 179L409 197L327 221L245 155L164 215L82 173L0 119Z" fill="#308ebc"></path><path d="M0 445L82 493L164 505L245 457L327 463L409 493L491 475L573 475L655 445L736 445L818 469L900 457L900 377L818 299L736 377L655 389L573 281L491 305L409 329L327 353L245 347L164 377L82 281L0 359Z" fill="#2c80aa"></path><path d="M0 547L82 559L164 553L245 517L327 529L409 571L491 553L573 559L655 529L736 535L818 529L900 553L900 455L818 467L736 443L655 443L573 473L491 473L409 491L327 461L245 455L164 503L82 491L0 443Z" fill="#287399"></path><path d="M0 601L82 601L164 601L245 601L327 601L409 601L491 601L573 601L655 601L736 601L818 601L900 601L900 551L818 527L736 533L655 527L573 557L491 551L409 569L327 527L245 515L164 551L82 557L0 545Z" fill="#246688"></path></svg>